<svg width="74" height="76" viewBox="0 0 74 76" fill="none" xmlns="http://www.w3.org/2000/svg">
<rect width="74" height="76" rx="37" fill="white"/>
<path fill-rule="evenodd" clip-rule="evenodd" d="M58.4867 20.6676C61.6347 24.6796 60.1741 32.3584 58.7297 36.0354C58.7431 36.0398 58.7563 36.0442 58.7697 36.0486L58.7401 36.0496L55.2355 35.8164C55.2355 35.8106 55.2351 35.8026 55.2355 35.7986C55.9179 27.8675 55.1325 24.6915 54.3669 24.1536C45.2007 30.7792 37.0133 28.6732 34.4825 28.0222C33.7935 27.845 33.5239 27.7756 33.7679 28.0198C34.5119 28.7637 36.2047 29.6564 37.4117 30.293H37.4119L37.4127 30.2934C37.6861 30.4376 37.9345 30.5686 38.1413 30.6818C28.191 30.7968 24.1907 26.0056 23.0146 24.5969C22.8947 24.4533 22.8041 24.3448 22.7396 24.2803C22.1657 23.7064 18.9367 21.7451 17.9226 25.4846C16.9403 29.1067 17.5624 33.355 17.8908 35.5976C17.9193 35.792 17.9226 35.7962 17.9226 35.8596L14.6902 36.0496L14.6818 36.0494C10.3845 26.1107 13.6146 20.5394 16.5282 18.4492C16.5282 13.5689 22.4861 8.8153 30.0285 10.5265C39.6911 13.2809 42.6311 12.3682 46.0893 11.2946C47.4855 10.8611 48.9661 10.4015 51.0077 10.1463C60.3813 8.97454 63.5361 15.1323 63.9375 18.3225C62.3657 17.4098 59.6487 19.4633 58.4867 20.6676ZM34.6123 13.1744C32.1825 12.3293 25.9226 11.4344 22.6331 14.8223C21.9054 15.5718 21.0486 16.9773 21.0486 16.9773C21.0486 16.9773 19.5908 19.6392 18.4499 18.4984C17.3091 17.3576 19.9711 13.935 22.0627 12.9209C24.1543 11.9068 29.3516 10.1321 34.6123 13.1744Z" fill="#754FFE"/>
<path d="M30.0935 37.0004H16.1495C14.3993 37.0004 12.9805 38.4194 12.9805 40.1696V46.6344C12.9805 48.3846 14.3993 49.8036 16.1495 49.8036H30.0935C31.8437 49.8036 33.2625 48.3846 33.2625 46.6344V40.1696C33.2625 38.4194 31.8437 37.0004 30.0935 37.0004Z" stroke="#754FFE" stroke-width="1.26763"/>
<path d="M11.5845 39.2188H10.6972C10.3121 39.2188 10 39.5308 10 39.916V41.9442C10 42.3292 10.3121 42.6414 10.6972 42.6414H11.5845C11.9696 42.6414 12.2817 42.3292 12.2817 41.9442V39.916C12.2817 39.5308 11.9696 39.2188 11.5845 39.2188Z" fill="#754FFE" stroke="#754FFE" stroke-width="0.0633813"/>
<path d="M43.4027 37.0004H57.3465C59.0967 37.0004 60.5157 38.4194 60.5157 40.1696V46.6344C60.5157 48.3846 59.0967 49.8036 57.3465 49.8036H43.4027C41.6525 49.8036 40.2337 48.3846 40.2337 46.6344V40.1696C40.2337 38.4194 41.6525 37.0004 43.4027 37.0004Z" stroke="#754FFE" stroke-width="1.26763"/>
<path d="M61.9098 39.2188H62.797C63.182 39.2188 63.4942 39.5308 63.4942 39.916V41.9442C63.4942 42.3292 63.182 42.6414 62.797 42.6414H61.9098C61.5246 42.6414 61.2126 42.3292 61.2126 41.9442V39.916C61.2126 39.5308 61.5246 39.2188 61.9098 39.2188Z" fill="#754FFE" stroke="#754FFE" stroke-width="0.0633813"/>
<path d="M34.5283 41.1202H38.9649C39.3499 41.1202 39.6621 41.4322 39.6621 41.8174V43.8456C39.6621 44.2306 39.3499 44.5426 38.9649 44.5426H34.5283C34.1431 44.5426 33.8311 44.2306 33.8311 43.8456V41.8174C33.8311 41.4322 34.1431 41.1202 34.5283 41.1202Z" fill="#754FFE" stroke="#754FFE" stroke-width="0.0633813"/>
<path d="M29.8044 42.7874C29.8044 43.4174 29.4638 43.9282 29.0438 43.9282C28.6237 43.9282 28.2832 43.4174 28.2832 42.7874C28.2832 42.1572 28.6237 41.6464 29.0438 41.6464C29.4638 41.6464 29.8044 42.1572 29.8044 42.7874Z" fill="#754FFE"/>
<path d="M43.8751 42.7874C43.8751 43.4174 44.2155 43.9282 44.6357 43.9282C45.0557 43.9282 45.3961 43.4174 45.3961 42.7874C45.3961 42.1572 45.0557 41.6464 44.6357 41.6464C44.2155 41.6464 43.8751 42.1572 43.8751 42.7874Z" fill="#754FFE"/>
<path d="M38.4891 50.2032C37.2215 51.2172 35.5101 50.7102 35.0665 50.2032C35.1931 50.837 35.6749 51.7244 36.8411 51.7244C38.0073 51.7244 38.4257 50.7102 38.4891 50.2032Z" fill="#754FFE"/>
<path fill-rule="evenodd" clip-rule="evenodd" d="M34.1999 54.822C34.2525 54.5828 34.4893 54.4314 34.7287 54.4842L39.2069 55.47C39.4463 55.5228 39.5975 55.7594 39.5447 55.9988C39.4921 56.238 39.2555 56.3894 39.0161 56.3366L34.5379 55.3506C34.2985 55.298 34.1473 55.0614 34.1999 54.822Z" fill="#754FFE"/>
<path d="M36.7781 65.3508C27.9554 65.4522 21.482 57.3226 19.3482 53.245C19.0313 52.6394 18.7778 52.5478 18.5876 52.6746C18.2834 52.8774 18.5031 53.2874 18.5876 53.4986C19.6524 55.9832 21.1017 58.0832 21.6933 58.8226C19.6144 62.2706 18.9256 65.71 18.8411 66.9988C22.2891 63.6016 25.7708 63.7664 27.0807 64.2734C37.3485 69.5974 43.0529 65.858 46.2853 64.2734C48.8713 63.0058 52.8981 65.4776 54.5883 66.872C54.3855 63.7284 52.6869 60.2804 51.8629 58.9494C53.1939 57.1746 54.2713 55.0198 54.8419 53.9422C55.2981 53.0802 55.1587 52.738 55.0319 52.6746C54.7277 52.5226 54.3559 52.9916 54.2081 53.245C53.2573 54.8296 47.8065 65.2242 36.7781 65.3508Z" fill="#754FFE"/>
</svg>
